# xmcd
#
# Track frame offsets: 
#        150
#        21422
#        39855
#        60742
#        84595
#        94900
#        123930
#        149027
#        165870
#
# Disc length: 2450 seconds
#
# Revision: 1
# Processed by: cddbd v1.5.2PL0 Copyright (c) Steve Scherf et al.
# Submitted via: ExactAudioCopy v0.95b4
#
DISCID=71099009
DTITLE=Victor Feldman - Merry Olde Soul
DYEAR=1961
DGENRE=Jazz
TTITLE0=For Dancers Only
TTITLE1=Lisa
TTITLE2=Serenity
TTITLE3=You Make Me Feel So Young
TTITLE4=Come Sunday
TTITLE5=The Man  I  Love
TTITLE6=Bloke's   Blues
TTITLE7=I  Want To Be Wanted
TTITLE8=Mosey On Down
EXTD=
EXTT0=
EXTT1=
EXTT2=
EXTT3=
EXTT4=
EXTT5=
EXTT6=
EXTT7=
EXTT8=
PLAYORDER=
